<svg width="128" height="128" viewBox="0 0 128 128" fill="none" xmlns="http://www.w3.org/2000/svg">
  <rect width="128" height="128" rx="24" fill="white" />
  <path
    d="M64.4751 128C59.5334 119.416 56.8893 109.636 56.8893 99.6176V0H74.6671V99.6176C74.6671 108.767 77.8749 117.627 83.7323 124.656L86.519 128H64.4751Z"
    fill="#D21F2F" />
  <path
    d="M92.4449 0V99.6176C92.4449 104.608 94.1946 109.441 97.3895 113.275L109.66 128H86.519L83.7322 124.656C77.8749 117.627 74.6671 108.767 74.6671 99.6176V0H92.4449Z"
    fill="#F2994A" />
  <path
    d="M81.8907 128L81.0008 126.932C74.6109 119.264 71.1116 109.599 71.1116 99.6176V0H78.2227V99.6176C78.2227 107.935 81.1388 115.99 86.4637 122.38L91.1473 128H81.8907Z"
    fill="white" />
  <path
    d="M49.7782 33.2442C49.7782 21.1246 45.6522 9.41138 38.1496 0H18.8894L24.9779 6.49445C31.7739 13.7436 35.556 23.3076 35.556 33.2442V74.6667H49.7782V33.2442Z"
    fill="#00959A" />
  <path d="M0.00046901 127.958C0.000324335 127.958 0.000613686 127.958 0.00046901 127.958Z" fill="#00959A" />
  <path
    d="M24.8891 64C24.8891 58.1089 29.6647 53.3333 35.5558 53.3333H92.4447C98.3357 53.3333 103.111 58.1089 103.111 64C103.111 69.891 98.3357 74.6666 92.4447 74.6666H35.5558C29.6647 74.6666 24.8891 69.891 24.8891 64Z"
    fill="white" />
  <path fill-rule="evenodd" clip-rule="evenodd"
    d="M35.5558 46.2222H92.4447C102.263 46.2222 110.222 54.1816 110.222 64C110.222 73.8184 102.263 81.7778 92.4447 81.7778H35.5558C25.7374 81.7778 17.778 73.8184 17.778 64C17.778 54.1816 25.7374 46.2222 35.5558 46.2222ZM35.5558 53.3333C29.6648 53.3333 24.8891 58.109 24.8891 64C24.8891 69.891 29.6648 74.6667 35.5558 74.6667H92.4447C98.3357 74.6667 103.111 69.891 103.111 64C103.111 58.109 98.3357 53.3333 92.4447 53.3333H35.5558Z"
    fill="#161618" />
</svg>